<svg width="32" height="32" viewBox="0 0 32 32" fill="none" xmlns="http://www.w3.org/2000/svg">
<g id="Social Icons / White / Dribbble">
<path id="BG" fill-rule="evenodd" clip-rule="evenodd" d="M0 16C0 7.43959 7.16344 0.5 16 0.5C24.8366 0.5 32 7.43959 32 16C32 24.5604 24.8366 31.5 16 31.5C7.16344 31.5 0 24.5604 0 16Z" fill="white"/>
<path id="Path" fill-rule="evenodd" clip-rule="evenodd" d="M24.5335 15.9885C24.5335 16.5475 24.4747 17.1058 24.3593 17.65C24.2468 18.1813 24.0801 18.7029 23.8618 19.2015C23.6485 19.6913 23.3839 20.1632 23.0747 20.6034C22.7701 21.0408 22.4192 21.4511 22.0338 21.8252C21.6475 22.1976 21.2225 22.5366 20.7712 22.8329C20.3154 23.1303 19.8275 23.3863 19.3216 23.5939C18.8061 23.8043 18.2665 23.9655 17.7186 24.0744C17.1561 24.1864 16.5777 24.2437 15.9997 24.2437C15.4214 24.2437 14.843 24.1864 14.2813 24.0744C13.7326 23.9655 13.1929 23.8043 12.6779 23.5939C12.1721 23.3863 11.6837 23.1303 11.2278 22.8329C10.7766 22.5366 10.3516 22.1976 9.96611 21.8252C9.58027 21.4511 9.2294 21.0408 8.92439 20.6034C8.61687 20.1632 8.35184 19.6912 8.13768 19.2015C7.9193 18.7029 7.75224 18.1813 7.63931 17.65C7.52515 17.1058 7.4668 16.5475 7.4668 15.9885C7.4668 15.429 7.52511 14.8695 7.63934 14.3265C7.75227 13.7953 7.91934 13.2729 8.13771 12.7751C8.35187 12.2849 8.6169 11.8125 8.92442 11.3723C9.22943 10.9346 9.5803 10.525 9.96614 10.1506C10.3516 9.7781 10.7766 9.43995 11.2279 9.14409C11.6837 8.84538 12.1721 8.58946 12.6779 8.38144C13.193 8.17059 13.7326 8.00898 14.2814 7.90096C14.8431 7.78972 15.4214 7.73328 15.9998 7.73328C16.5777 7.73328 17.1561 7.78972 17.7186 7.90096C18.2665 8.00901 18.8061 8.17062 19.3216 8.38144C19.8275 8.58942 20.3154 8.84538 20.7713 9.14409C21.2225 9.43995 21.6476 9.7781 22.0338 10.1506C22.4193 10.525 22.7701 10.9346 23.0747 11.3723C23.3839 11.8125 23.6485 12.285 23.8618 12.7751C24.0801 13.2729 24.2468 13.7953 24.3593 14.3265C24.4747 14.8695 24.5335 15.429 24.5335 15.9885ZM12.8904 9.61205C10.8582 10.5404 9.34143 12.3518 8.86848 14.5349C9.0606 14.5366 12.0974 14.5737 15.5963 13.6743C14.335 11.5065 12.9875 9.73745 12.8904 9.61205ZM16.2001 14.7599C12.4479 15.8466 8.84724 15.7684 8.71808 15.7636C8.71597 15.8393 8.71223 15.9127 8.71223 15.9885C8.71223 17.7995 9.41851 19.4505 10.5794 20.6989C10.5769 20.6953 12.5712 17.2727 16.5039 16.0425C16.5989 16.0119 16.6956 15.9844 16.7914 15.9578C16.6085 15.5572 16.4089 15.1557 16.2001 14.7599ZM20.8125 10.6976C19.5295 9.60317 17.8448 8.93933 15.9997 8.93933C15.4076 8.93933 14.833 9.00867 14.2825 9.13684C14.3917 9.27875 15.7605 11.0354 17.0068 13.2491C19.7566 12.2519 20.7945 10.7234 20.8125 10.6976ZM17.2882 17.126C17.2719 17.1312 17.2557 17.1357 17.2398 17.1413C12.9401 18.5913 11.536 21.5135 11.5208 21.5454C12.7579 22.4761 14.3097 23.0376 15.9998 23.0376C17.009 23.0376 17.9703 22.8389 18.8449 22.479C18.737 21.863 18.3136 19.7041 17.2882 17.126ZM20.072 21.8348C21.7083 20.7667 22.8705 19.0705 23.1946 17.1058C23.0446 17.059 21.0058 16.4346 18.6536 16.7995C19.6095 19.3405 19.9978 21.41 20.072 21.8348ZM17.5678 14.2995C17.7369 14.6357 17.9007 14.9779 18.0519 15.3218C18.1057 15.4451 18.1582 15.5661 18.2095 15.687C20.7129 15.3822 23.1793 15.8949 23.2847 15.9159C23.2681 14.2447 22.6501 12.711 21.6276 11.5102C21.6138 11.5291 20.445 13.1628 17.5678 14.2995Z" fill="#759CEA"/>
</g>
</svg>
