<svg width="32" height="32" viewBox="0 0 32 32" fill="none" xmlns="http://www.w3.org/2000/svg">
<g id="Social Icons / White / Instagram">
<path id="BG" fill-rule="evenodd" clip-rule="evenodd" d="M0 16C0 7.43959 7.16344 0.5 16 0.5C24.8366 0.5 32 7.43959 32 16C32 24.5604 24.8366 31.5 16 31.5C7.16344 31.5 0 24.5604 0 16Z" fill="white"/>
<path id="Path" fill-rule="evenodd" clip-rule="evenodd" d="M16.0009 7.73328C13.6834 7.73328 13.3925 7.74309 12.4823 7.78322C11.5739 7.82352 10.9538 7.96285 10.4112 8.16728C9.84993 8.37843 9.37384 8.66087 8.89952 9.12054C8.42485 9.58003 8.13329 10.0412 7.91462 10.5848C7.70307 11.1106 7.55906 11.7115 7.51818 12.5912C7.47746 13.473 7.4668 13.7549 7.4668 16C7.4668 18.2451 7.47711 18.526 7.51835 19.4078C7.56013 20.2879 7.70395 20.8886 7.9148 21.4142C8.13294 21.9579 8.4245 22.4192 8.89899 22.8787C9.37313 23.3385 9.84922 23.6216 10.4101 23.8328C10.9531 24.0372 11.5733 24.1765 12.4816 24.2168C13.3918 24.257 13.6825 24.2668 15.9999 24.2668C18.3176 24.2668 18.6075 24.257 19.5178 24.2168C20.4262 24.1765 21.047 24.0372 21.59 23.8328C22.151 23.6216 22.6264 23.3385 23.1006 22.8787C23.5752 22.4192 23.8668 21.9579 24.0855 21.4144C24.2952 20.8886 24.4392 20.2877 24.4819 19.408C24.5228 18.5262 24.5335 18.2451 24.5335 16C24.5335 13.7549 24.5228 13.4732 24.4819 12.5914C24.4392 11.7113 24.2952 11.1106 24.0855 10.585C23.8668 10.0413 23.5752 9.58003 23.1006 9.12054C22.6259 8.6607 22.1512 8.37826 21.5894 8.16728C21.0454 7.96285 20.425 7.82352 19.5165 7.78322C18.6063 7.74309 18.3165 7.73328 15.9983 7.73328H16.0009ZM15.2354 9.22299C15.4626 9.22265 15.7161 9.22299 16.0009 9.22299C18.2793 9.22299 18.5494 9.23091 19.4491 9.27052C20.2811 9.30738 20.7327 9.44206 21.0335 9.55521C21.4317 9.70505 21.7156 9.88416 22.0141 10.1735C22.3128 10.4628 22.4977 10.7384 22.6527 11.1242C22.7695 11.4152 22.9087 11.8527 22.9466 12.6587C22.9875 13.5301 22.9963 13.7919 22.9963 15.9981C22.9963 18.2043 22.9875 18.4661 22.9466 19.3375C22.9085 20.1435 22.7695 20.581 22.6527 20.8721C22.498 21.2578 22.3128 21.5325 22.0141 21.8217C21.7154 22.111 21.4319 22.2901 21.0335 22.44C20.733 22.5536 20.2811 22.688 19.4491 22.7248C18.5495 22.7645 18.2793 22.7731 16.0009 22.7731C13.7223 22.7731 13.4522 22.7645 12.5527 22.7248C11.7207 22.6876 11.2691 22.553 10.9681 22.4398C10.5699 22.29 10.2855 22.1109 9.98679 21.8215C9.68812 21.5322 9.50323 21.2573 9.3482 20.8714C9.2314 20.5803 9.0922 20.1429 9.05433 19.3368C9.01344 18.4654 9.00527 18.2036 9.00527 15.996C9.00527 13.7885 9.01344 13.5281 9.05433 12.6566C9.09238 11.8506 9.2314 11.4132 9.3482 11.1218C9.50287 10.736 9.68812 10.4604 9.98679 10.1711C10.2855 9.88175 10.5699 9.70263 10.9681 9.55246C11.2689 9.43879 11.7207 9.30445 12.5527 9.26742C13.3399 9.23298 13.645 9.22265 15.2354 9.22092V9.22299ZM20.556 10.5956C19.9906 10.5956 19.532 11.0394 19.532 11.5873C19.532 12.135 19.9906 12.5793 20.556 12.5793C21.1213 12.5793 21.58 12.135 21.58 11.5873C21.58 11.0396 21.1213 10.5956 20.556 10.5956ZM16.0009 11.7547C13.5808 11.7547 11.6187 13.6555 11.6187 16C11.6187 18.3445 13.5808 20.2445 16.0009 20.2445C18.4211 20.2445 20.3825 18.3445 20.3825 16C20.3825 13.6555 18.4211 11.7547 16.0009 11.7547ZM16.0009 13.2444C17.5718 13.2444 18.8454 14.4781 18.8454 16C18.8454 17.5218 17.5718 18.7556 16.0009 18.7556C14.4299 18.7556 13.1564 17.5218 13.1564 16C13.1564 14.4781 14.4299 13.2444 16.0009 13.2444Z" fill="#759CEA"/>
</g>
</svg>
